<svg width="54" height="54" viewBox="0 0 54 54" fill="none" xmlns="http://www.w3.org/2000/svg">
  <path d="M0 21.6C0 14.0382 0 10.2573 1.47148 7.36983C2.7657 4.83019 4.83019 2.7657 7.36983 1.47148C10.2573 0 14.0382 0 21.6 0H32.4C39.9618 0 43.7427 0 46.6302 1.47148C49.1698 2.7657 51.2343 4.83019 52.5285 7.36983C54 10.2573 54 14.0382 54 21.6V32.4C54 39.9618 54 43.7427 52.5285 46.6302C51.2343 49.1698 49.1698 51.2343 46.6302 52.5285C43.7427 54 39.9618 54 32.4 54H21.6C14.0382 54 10.2573 54 7.36983 52.5285C4.83019 51.2343 2.7657 49.1698 1.47148 46.6302C0 43.7427 0 39.9618 0 32.4V21.6Z" fill="#DB4EE0"/>
  <path d="M9.69141 12.6948V17.5394H39.4717V21.1727L28.9617 31.5878V37.2575H25.0151V31.5878C25.0151 31.5878 18.8762 25.4106 16.6473 23.2306H9.71187L19.3168 32.7984C19.8741 33.3315 20.1891 34.0824 20.1891 34.8579V40.5732L33.7984 40.6217V34.8579C33.7984 34.0824 34.1135 33.3315 34.6708 32.7984L44.3083 23.2056V12.6948H9.69141Z" fill="#F1FCFF"/>
</svg>
